<?xml version="1.0" standalone="no"?>
<!DOCTYPE svg PUBLIC "-//W3C//DTD SVG 1.1//EN" "http://www.w3.org/Graphics/SVG/1.1/DTD/svg11.dtd" >
<!--
2013-9-30: Created.
-->
<svg>
<metadata>
Created by iconfont
</metadata>
<defs>

<font id="iconfont" horiz-adv-x="1024" >
  <font-face
    font-family="iconfont"
    font-weight="500"
    font-stretch="normal"
    units-per-em="1024"
    ascent="896"
    descent="-128"
  />
    <missing-glyph />
    
    <glyph glyph-name="html5" unicode="&#60176;" d="M755.419429 554.861714l9.142857 99.986286-505.124571 0 26.843429-305.152 349.696 0-12.580571-130.267429-112.566857-30.281143-111.981714 30.281143-7.460571 80.018286-99.986286 0 12.580571-158.866286 206.848-57.124571 2.267429 0 0 0.585143 205.165714 56.539429 28.598857 310.857143-367.981714 0-8.557714 103.424 385.170286 0zM109.714286 822.857143l804.571429 0-73.142857-821.686857-330.313143-92.598857-327.972571 92.598857z"  horiz-adv-x="1024" />

    
    <glyph glyph-name="biaozhu" unicode="&#58905;" d="M438.054359 189.491117l0-400.598794 147.405211 0L585.45957 189.36832c-23.544229-5.913687-48.062646-9.399067-73.460082-9.399067C486.432183 179.969253 461.750037 183.496589 438.054359 189.491117L438.054359 189.491117zM511.999488 811.107677c-165.350932 0-299.392788-133.218094-299.392788-297.544697 0-164.331719 134.041856-297.544697 299.392788-297.544697 165.351955 0 299.391764 133.212978 299.391764 297.544697C811.392276 677.889583 677.351444 811.107677 511.999488 811.107677L511.999488 811.107677zM394.627291 642.253968c-23.260773 0-42.120306 18.857487-42.120306 42.113143 0 23.260773 18.857487 42.11826 42.120306 42.11826 23.25975 0 42.117237-18.851347 42.117237-42.11826C436.742481 661.111454 417.887041 642.253968 394.627291 642.253968L394.627291 642.253968z"  horiz-adv-x="1024" />

    
    <glyph glyph-name="weixin" unicode="&#59365;" d="M1024 259.968c0 141.888-141.866667 257.429333-301.461333 257.429333-169.088 0-301.866667-115.541333-301.866667-257.429333 0-142.250667 132.778667-257.386667 301.866667-257.386667 35.370667 0 71.146667 9.024 106.496 17.642667l97.450667-53.418667-26.666667 88.789333C970.922667 109.034667 1024 180.16 1024 259.968zM624.618667 304.384c-17.642667 0-35.328 17.664-35.328 35.392 0 17.621333 17.685333 35.328 35.328 35.328 26.752 0 44.458667-17.706667 44.458667-35.328C669.077333 322.048 651.370667 304.384 624.618667 304.384zM820.010667 304.384c-17.664 0-35.306667 17.664-35.306667 35.392 0 17.621333 17.642667 35.328 35.306667 35.328 26.709333 0 44.416-17.706667 44.416-35.328C864.426667 322.048 846.293333 304.384 820.010667 304.384zM693.248 548.757333c11.626667 0 23.296-0.810667 34.901333-2.005333-31.274667 146.133333-187.392 254.464-365.674667 254.464C163.370667 801.216 0 665.557333 0 492.970667c0-99.562667 54.208-181.418667 144.917333-244.864L108.8 138.965333l126.826667 63.786667c45.354667-8.810667 81.877333-18.069333 126.848-18.069333 11.221333 0 22.506667 0.405333 33.749333 1.557333-7.232 24.128-11.242667 49.749333-11.242667 75.882667C384.96 420.309333 521.066667 548.757333 693.248 548.757333zM498.133333 647.104c27.285333 0 45.333333-18.069333 45.333333-45.376 0-27.264-18.069333-45.333333-45.333333-45.333333-27.306667 0-54.570667 18.069333-54.570667 45.333333C443.968 629.056 471.210667 647.104 498.133333 647.104zM244.458667 556.437333c-27.306667 0-54.570667 18.048-54.570667 45.333333 0 27.306667 27.285333 45.354667 54.570667 45.354667 27.328 0 45.397333-18.069333 45.397333-45.354667C289.834667 574.869333 271.786667 556.437333 244.458667 556.437333z"  horiz-adv-x="1024" />

    
    <glyph glyph-name="msnui-website" unicode="&#59263;" d="M918.23 753.209h-803.166c-28.479 0-51.264-17.212-51.264-45.898v-516.332c0-22.944 22.785-45.893 45.57-45.893h321.969l-8.682-91.794h-62.658c-22.78 0-39.874-28.681-39.874-51.63h381.649c5.693 17.21-11.394 51.63-34.179 51.63h-62.66l-8.677 91.794h321.971c22.785 0 45.57 22.948 45.57 45.893v516.332c0 28.687-22.787 45.898-45.57 45.898zM912.533 277.036h-791.771v424.54h791.771v-424.54zM337.22 552.414c13.419 0 26.757 5.563 36.248 15.125 9.491 9.556 15.015 22.988 15.015 36.508 0 13.521-5.524 26.953-15.015 36.513-9.491 9.555-22.828 15.122-36.248 15.122-13.424 0-26.763-5.567-36.254-15.122-9.491-9.56-15.015-22.993-15.015-36.513 0-13.521 5.524-26.951 15.015-36.508 9.491-9.562 22.83-15.125 36.254-15.125zM758.737 483.568h-216.458v-149.165h216.458v149.165zM758.737 632.732h-216.458v-17.21h216.458v17.21zM758.737 598.312h-216.458v-17.215h216.458v17.215zM491.015 483.568h-216.456v-17.21h216.456v17.21zM491.015 449.149h-216.456v-17.212h216.456v17.212zM491.015 420.461h-216.456v-17.21h216.456v17.21zM491.015 386.041h-216.456v-17.212h216.456v17.212zM491.015 351.621h-216.456v-17.215h216.456v17.215z"  horiz-adv-x="1027" />

    
    <glyph glyph-name="biaoge" unicode="&#58881;" d="M283.3408 806.8096 69.2224 806.8096c-17.3056 0-31.3344-14.0288-31.3344-31.3344l0-173.1584c0-17.3056 14.0288-31.3344 31.3344-31.3344l214.2208 0c17.3056 0 31.3344 14.0288 31.3344 31.3344l0 173.1584C314.6752 792.8832 300.6464 806.8096 283.3408 806.8096zM616.5504 806.8096 402.3296 806.8096c-17.3056 0-31.3344-14.0288-31.3344-31.3344l0-173.1584c0-17.3056 14.0288-31.3344 31.3344-31.3344l214.2208 0c17.3056 0 31.3344 14.0288 31.3344 31.3344l0 173.1584C647.7824 792.8832 633.856 806.8096 616.5504 806.8096zM954.7776 806.8096l-214.2208 0c-17.3056 0-31.3344-14.0288-31.3344-31.3344l0-173.1584c0-17.3056 14.0288-31.3344 31.3344-31.3344l214.2208 0c17.3056 0 31.3344 14.0288 31.3344 31.3344l0 173.1584C986.112 792.8832 972.0832 806.8096 954.7776 806.8096zM283.3408 499.3024 69.2224 499.3024c-17.3056 0-31.3344-14.0288-31.3344-31.3344l0-173.1584c0-17.3056 14.0288-31.3344 31.3344-31.3344l214.2208 0c17.3056 0 31.3344 14.0288 31.3344 31.3344L314.7776 468.0704C314.6752 485.2736 300.6464 499.3024 283.3408 499.3024zM616.5504 499.3024 402.3296 499.3024c-17.3056 0-31.3344-14.0288-31.3344-31.3344l0-173.1584c0-17.3056 14.0288-31.3344 31.3344-31.3344l214.2208 0c17.3056 0 31.3344 14.0288 31.3344 31.3344L647.8848 468.0704C647.7824 485.2736 633.856 499.3024 616.5504 499.3024zM954.7776 499.3024l-214.2208 0c-17.3056 0-31.3344-14.0288-31.3344-31.3344l0-173.1584c0-17.3056 14.0288-31.3344 31.3344-31.3344l214.2208 0c17.3056 0 31.3344 14.0288 31.3344 31.3344L986.112 468.0704C986.112 485.2736 972.0832 499.3024 954.7776 499.3024zM283.3408 196.9152 69.2224 196.9152c-17.3056 0-31.3344-14.0288-31.3344-31.3344l0-173.1584c0-17.3056 14.0288-31.3344 31.3344-31.3344l214.2208 0c17.3056 0 31.3344 14.0288 31.3344 31.3344L314.7776 165.5808C314.6752 182.8864 300.6464 196.9152 283.3408 196.9152zM616.5504 196.9152 402.3296 196.9152c-17.3056 0-31.3344-14.0288-31.3344-31.3344l0-173.1584c0-17.3056 14.0288-31.3344 31.3344-31.3344l214.2208 0c17.3056 0 31.3344 14.0288 31.3344 31.3344L647.8848 165.5808C647.7824 182.8864 633.856 196.9152 616.5504 196.9152zM954.7776 196.9152l-214.2208 0c-17.3056 0-31.3344-14.0288-31.3344-31.3344l0-173.1584c0-17.3056 14.0288-31.3344 31.3344-31.3344l214.2208 0c17.3056 0 31.3344 14.0288 31.3344 31.3344L986.112 165.5808C986.112 182.8864 972.0832 196.9152 954.7776 196.9152z"  horiz-adv-x="1024" />

    
    <glyph glyph-name="app4" unicode="&#59124;" d="M702.912 828.032 321.088 828.032c-53.952 0-97.6-43.712-97.6-97.6l0-692.736c0-53.888 43.712-97.6 97.6-97.6l381.888 0c53.888 0 97.6 43.776 97.6 97.6L800.576 730.368C800.576 784.32 756.8 828.032 702.912 828.032zM472.64 793.856l78.848 0c7.36 0 13.376-6.08 13.376-13.504S558.848 766.848 551.488 766.848L472.64 766.848c-7.488 0-13.504 6.08-13.504 13.504S465.152 793.856 472.64 793.856zM512-20.992c-24.128 0-43.776 19.648-43.776 43.776 0 24.256 19.648 43.776 43.776 43.776 24.256 0 43.776-19.52 43.776-43.776C555.776-1.344 536.256-20.992 512-20.992zM728.576 134.144c0-11.008-8.896-19.968-19.904-19.968L315.328 114.176c-11.008 0-19.968 9.024-19.968 19.968L295.36 704.512c0 11.008 8.96 19.904 19.968 19.904l393.344 0c11.008 0 19.904-8.896 19.904-19.904L728.576 134.144zM569.6 559.04C555.136 558.528 537.472 550.016 526.976 538.624c-9.344-10.112-17.472-26.176-15.232-41.6 16.128-1.152 32.768 7.68 42.88 19.072C564.608 527.424 571.52 543.232 569.6 559.04zM590.976 416C590.656 450.048 620.864 466.432 622.272 467.264c-17.024 23.104-43.52 26.304-52.864 26.624C546.752 496 525.376 481.6 513.856 481.6c-11.392 0-28.992 12.032-47.616 11.712C441.6 492.992 419.008 480 406.336 459.52 380.8 418.368 399.808 357.248 424.768 323.904 436.864 307.52 451.392 289.152 470.4 289.728c18.24 0.768 25.28 11.136 47.36 11.136s28.352-11.136 47.744-10.752C585.28 290.496 597.76 306.752 609.728 323.2c14.016 19.072 19.712 37.44 19.968 38.336C629.312 361.728 591.36 375.232 590.976 416z"  horiz-adv-x="1024" />

    
    <glyph glyph-name="application" unicode="&#58940;" d="M1008.302 589.443l-218.611-218.611c-20.13-20.13-52.741-20.13-72.87 0l-218.582 218.611c-20.13 20.101-20.13 52.741 0 72.842l218.582 218.611c20.13 20.13 52.741 20.13 72.87 0l218.611-218.611c20.13-20.101 20.13-52.741 0-72.842zM753.669 841.177l-215.711-215.711 215.711-215.711 215.711 215.711-215.711 215.711zM369.842-127.972h-312.748c-31.417 0-56.863 25.446-56.863 56.863v312.748c0 31.388 25.446 56.863 56.863 56.863h312.748c31.388 0 56.863-25.475 56.863-56.863v-312.748c0-31.417-25.475-56.863-56.863-56.863zM369.842 241.639h-312.748v-312.748h312.748v312.748zM369.842 383.797h-312.748c-31.417 0-56.863 25.446-56.863 56.863v312.748c0 31.388 25.446 56.863 56.863 56.863h312.748c31.388 0 56.863-25.475 56.863-56.863v-312.748c0-31.417-25.475-56.863-56.863-56.863zM369.842 753.408h-312.748v-312.748h312.748v312.748zM568.863 298.503h312.748c31.388 0 56.863-25.475 56.863-56.863v-312.748c0-31.417-25.475-56.863-56.863-56.863h-312.748c-31.417 0-56.863 25.446-56.863 56.863v312.748c0 31.388 25.446 56.863 56.863 56.863zM568.863-71.108h312.748v312.748h-312.748v-312.748z"  horiz-adv-x="1024" />

    
    <glyph glyph-name="drgspingtairuanjianxitong39" unicode="&#58913;" d="M916.854221 896l-809.700977 0c-59.088981 0-107.15399-48.068368-107.15399-107.15399l0-809.70471c0-59.068454 48.065009-107.136822 107.15399-107.14354l809.700977 0c59.077038 0 107.145406 48.066502 107.145406 107.14354l0 809.70471c0 59.087488-48.068368 107.15399-107.145406 107.15399zm40.106237-916.857953c0-22.107919-17.991526-40.090936-40.106237-40.090936l-809.700977 0c-22.116428 0-40.109596 17.983017-40.109596 40.090936l0 809.700977c0 22.107919 17.993243 40.090936 40.109596 40.090936l809.700977 0c22.116428 0 40.106237-17.983017 40.106237-40.090936l0-809.700977zM990.492918 324.274691l-915.921188 0c-18.49055 0-33.535707-15.062213-33.535707-33.583404 0-18.48204 15.045157-33.511859 33.535707-33.511859l915.921188 0c18.480324 0 33.508462 15.029856 33.508462 33.511859 0.001703 18.52119-15.026422 33.583404-33.508462 33.583404zM875.337984 739.413548c-0.185638 1.008235-0.589274 3.080905-1.560039 5.245549-0.996311 2.304293-2.242982 3.939265-3.130296 5.134854-2.174859 3.436853-3.217154 4.715885-3.547556 4.732903l-1.510648 1.619648c-1.704801 1.587287-3.285276 2.491635-4.724394 3.258028-1.34715 0.912861-3.394277 2.294074-6.267407 3.428337-2.464383 0.946924-4.675018 1.279028-6.415572 1.519164-0.936705 0.255465-3.120077 0.860066-5.863777 0.860066l-204.320794 0c-18.992969 0-34.43836-15.46073-34.43836-34.472435 0-19.008271 15.443712-34.472435 34.43836-34.472435l126.964147 0-231.260443-256.951694-204.225252 189.16162-193.623757-215.113374c-6.141373-6.839654-9.254642-15.666819-8.767562-24.861822 0.478571-9.191607 4.501287-17.627084 11.306867-23.734382 6.354253-5.754761 14.559794-8.92252 23.114475-8.92252 9.765571 0.001703 19.096835 4.172598 25.583952 11.438014l146.803788 163.131492 204.259587-189.149677 269.699164 299.6805 0-137.138685c0-19.018497 15.46924-34.480944 34.496283-34.480944 18.992969 0 34.43836 15.462447 34.43836 34.480944l-0.110701 227.769034c-0.04939 2.959988-0.689754 5.340905-1.338637 7.837664zM505.730018 286.72571l-105.07258-100.624252-1.224527-1.170027-23.194492-201.595965 9.797929-8.61085 196.023145 26.566622 272.132887 285.434206-61.931373 0-225.556626-227.367083-109.183896 109.541435 118.234317 117.825648-70.024501 0zm-76.303813-259.114464l6.124354 100.402936 92.662121-92.679289-98.78655-7.723535z"  horiz-adv-x="1024" />

    
    <glyph glyph-name="drgspingtairuanjianxitong37" unicode="&#58917;" d="M935.696631 36.984805c0 13.025272-9.395991 23.570858-20.968528 23.570858l-293.465985 0c-11.572537 0-20.963414-10.545586-20.963414-23.570858l0-94.279989-209.6274 0 0-70.704067 754.631097 0 0 70.704067-209.605196 0 0 94.279989zm303.719532 859.015195l-942.837315 0c-39.062271 0-70.709056-31.624832-70.709056-70.687102l0-659.971651c0-39.035077 31.647035-70.710803 70.709056-70.710803l942.837315 0c39.062271 0 70.710803 31.675975 70.710803 70.710803l0 659.971651c0 39.064017-31.650279 70.687102-70.712549 70.687102l0.001703 0zm0-707.043164c0-13.001447-10.569411-23.564047-23.572554-23.564047l-895.688464 0c-13.02869 0-23.567465 10.5626-23.567465 23.564047l0 612.807831c0 13.032108 10.538775 23.570858 23.567465 23.570858l895.690959 0c13.003144 0 23.569162-10.537053 23.569162-23.570858l0.001703-612.807831zm-241.465036 45.092903l127.519443 0 0 371.260717-127.519443 0 0-371.260717zm-204.031109 0l127.517697 0 0 485.494208-127.517697 0 0-485.494208zm-382.562071 0l127.519443 0 0 142.792737-127.519443 0 0-142.792737zm178.528717 0l127.521189 0 0 257.054668-127.521189 0 0-257.054668z"  horiz-adv-x="1536" />

    
    <glyph glyph-name="dianxin1" unicode="&#58884;" d="M512 871.43c-272.513 0-493.43-220.916-493.43-493.43s220.917-493.43 493.43-493.43c272.514 0 493.43 220.916 493.43 493.43s-220.916 493.43-493.43 493.43zM768.342 421.849c-65.075-45.084-138.126-72.109-213.773-92.891-24.926-6.85-50.272-12.163-75.22-18.933-3.917-1.063-9.638-6.164-9.637-9.397 0.025-55.022 1.299-110.244 21.868-162.177 6.474-16.349 17.99-32.045 30.839-44.188 16.369-15.47 33.381-12.663 44.526 7.056 11.059 19.564 19.144 41.118 26.125 62.585 6.311 19.41 9.081 39.952 14.104 59.82 1.003 3.965 4.475 9.245 7.93 10.326 16.467 5.141 33.321 9.043 51.484 13.759-4.371-44.534-13.204-86.638-26.842-127.708-13.307-40.073-30.683-78.213-58.146-110.777-19.307-22.896-41.54-41.594-72.932-46.067-27.758-3.956-52.202 3.485-74.214 19.789-38.121 28.236-59.316 68.478-76.542 111.041-23.479 58.018-35.763 118.571-38.324 181.101-0.807 19.733-0.861 19.2-20.097 21.492-50.195 5.988-99.912 14.308-145.485 37.915-35.562 18.422-60.678 45.147-66.107 86.729-0.163 1.253-1.136 2.399-1.73 3.597 0 7.15 0 14.304 0 21.456 22.517 101.789 99.469 153.376 183.572 197.774 22.279 11.76 46.355 20.112 69.353 29.924 2.138-2.952 3.233-3.878 3.585-5.032 7.271-23.947 7.071-23.605-15.286-35.372-34.090-17.94-67.399-37.393-92.943-66.926-10.077-11.652-18.327-25.249-25.525-38.954-16.48-31.375-0.688-54.037 18.47-69.269 19.343-15.378 67.29-29.106 93.759-27.443 6.643 31.642 12.3 63.633 20.193 95.064 13.885 55.31 32.13 109.049 71.818 152.095 24.41 26.477 53.341 44.663 91.678 41.574 19.904-1.604 36.963-9.607 52.4-21.658 30.021-23.438 48.809-55.083 66.263-89.985-16.014-4.163-29.205-12.909-45.742-1.12-14.074 10.038-27.259 6.663-41.325-5.928-31.67-28.358-46.884-65.65-56.339-105.784-3.75-15.918-6-32.19-9.616-52.083 21.798 5.029 40.889 8.501 59.427 13.877 59.616 17.291 116.439 41.019 164.198 81.652 15.321 13.037 28.909 29.479 39.157 46.806 17.497 29.585 6.004 64.634-23.972 81.558-6.178 3.485-12.866 8.111-19.49 8.411-32.593 1.469-34.867 24.505-36.242 49.792 29.947 1.664 59.498-1.47 88.514-8.831 43.92-11.143 84.847-28.339 115.284-63.752 24.325-28.305 30.662-60.003 18.364-96.091-19.765-58.006-58.131-100.707-107.382-134.827z"  horiz-adv-x="1024" />

    
    <glyph glyph-name="dianxin" unicode="&#58885;" d="M984.53504 579.51232a513.22368 513.22368 0 0 1-110.91968 166.00064 513.24928 513.24928 0 0 1-166.00576 110.91968A513.26976 513.26976 0 0 1 511.7952 895.3856a513.28 513.28 0 0 1-195.81952-38.95296 513.2288 513.2288 0 0 1-166.00064-110.91968A513.24416 513.24416 0 0 1 39.05536 579.51232 513.28 513.28 0 0 1 0.1024 383.68768a513.28 513.28 0 0 1 38.95296-195.8144 513.23904 513.23904 0 0 1 110.91968-166.00064 513.24416 513.24416 0 0 1 166.00576-110.9248A513.31584 513.31584 0 0 1 511.7952-128c66.97472 0 133.93408 13.31712 195.8144 38.94784a513.2544 513.2544 0 0 1 166.00064 110.9248 513.23904 513.23904 0 0 1 110.91968 166.00064 513.28 513.28 0 0 1 38.95296 195.8144c0 66.98496-13.31712 133.9392-38.95296 195.82464z m-499.8656-250.50112c21.57056-248.81664 91.84256-241.37216 122.04032-61.42464l48.69632 11.79136c-53.62176-345.62048-269.3632-318.93504-294.64064 42.1888-248.41216 6.83008-284.77952 197.9392 17.25952 318.31552l10.47552-26.0608c-157.7984-67.6352-170.12224-162.57024-25.8816-179.32288 38.21568 257.50528 166.43072 317.07136 252.7232 149.53984l-25.2672-7.44448c-53.01248 41.56928-86.91712-29.16352-100.48-137.12896 202.18368 50.87744 308.20352 178.69312 157.184 209.1008l-8.6272 37.23264c328.54528-28.544 231.76704-270.53568-153.48736-356.7872z"  horiz-adv-x="1024" />

    
    <glyph glyph-name="tubiao" unicode="&#59254;" d="M929.29536 22.52288H63.90272V664.73984c0 15.45216 12.48256 27.93472 27.93472 27.93472s27.93472-12.48256 27.93472-27.93472v-586.33728h809.6256a27.904 27.904 0 0 0 27.9296-27.93984c-0.09728-15.45216-12.57984-27.93984-28.032-27.93984z m-83.70688 111.74912h-55.86944c-30.80192 0-55.86944 24.96512-55.86944 55.86944V525.06112c0 30.80192 24.96512 55.86944 55.86944 55.86944h55.86944c30.80192 0 55.86944-24.96512 55.86944-55.86944v-335.02208c0-30.80192-25.06752-55.76704-55.86944-55.76704z m-279.14752 0H510.5664c-30.80192 0-55.87456 24.96512-55.87456 55.86944V692.57216c0 30.80192 24.97024 55.86944 55.87456 55.86944h55.87456c30.80192 0 55.86944-24.96512 55.86944-55.86944v-502.53312c-0.1024-30.80192-25.07264-55.76704-55.86944-55.76704z m-279.25504 0H231.31136c-30.80192 0-55.86944 24.96512-55.86944 55.86944V413.41952c0 30.80192 24.96512 55.86944 55.86944 55.86944h55.87456c30.80192 0 55.86944-24.96512 55.86944-55.86944v-223.38048c0-30.80192-24.97024-55.76704-55.86944-55.76704z"  horiz-adv-x="1024" />

    
    <glyph glyph-name="zhineng" unicode="&#58898;" d="M808.779305 367.345481c16.829603 61.158718 32.724399 118.922233 32.559553 165.533589-0.522182 162.879677-143.630633 300.487817-312.505159 300.487817l-4.014655-0.027645c-172.724335-2.226951-325.182908-143.135073-328.12453-302.344121-0.714672-4.922841-0.660406-10.601309-0.577471-17.80639 0.027645-1.89726 0.05529-3.849809 0.082935-5.650823-74.304382-87.723423-83.928904-120.517446-83.928904-139.271954 0-30.799494 17.242229-56.731438 47.299406-71.1416 9.735102-4.660726 24.914202-7.149791 60.114355-9.858992l7.314637-0.577471-0.164845-88.878366c0.467916-42.07452 35.44691-76.311197 78.593437-76.311197l74.413938-0.01331-0.220136-157.3251c0-9.335786 4.592126-18.080791 12.319389-23.333323a28.275617 28.275617 0 0 1 15.839506-4.86755 28.105652 28.105652 0 0 1 10.394483 1.993504l346.632282 137.800631c13.035084 5.169597 20.266786 19.126178 16.994448 32.752043-0.164846 0.605116-14.575008 62.16315-1.539923 140.619387 6.105428 36.725743 17.490009 78.153167 28.517254 118.220871z m-54.284352 14.945654c-11.412226-41.456093-23.209433-84.327195-29.781753-123.926984-9.872302-59.316749-5.967204-110.232518-2.007839-138.748748L435.994945 5.643656l0.220135 143.960324a28.197802 28.197802 0 0 1-8.222823 19.937095 28.159918 28.159918 0 0 1-19.937095 8.263779l-103.260883 0.01331c-11.604716 0-21.504663 9.446366-21.641864 20.253476l0.220135 114.810309c0.027645 14.808453-11.412226 27.114531-26.179724 28.145584l-33.192314 2.39282c-28.297119 2.185995-38.004575 3.890764-40.066681 4.49588-15.344969 7.342282-15.344969 16.788648-15.344969 19.978051 0.081911 0.949142 3.107492 24.158574 73.753532 106.986801l2.612955 3.066537c7.754907 9.211896 7.671973 18.672597 7.479482 35.846225-0.027645 3.038892-0.109556 5.953893-0.05529 8.084599 0.384981 1.828659 0.605116 3.698274 0.605117 5.596557 0.742317 128.76689 130.650839 247.715744 272.548034 249.545427l3.299983 0.027645c138.433391 0 255.746076-111.909642 256.186347-244.361496 0.138225-38.898427-15.454525-95.58891-30.524069-150.395444zM519.235798 727.328203c-71.554226 0-132.025917-48.78404-132.025918-106.53322 0-64.885661 72.626234-64.885661 136.727599-64.885661 64.101365 0 136.755243 0 136.755243 64.885661 0.001024 58.739277-63.46758 106.53322-141.456924 106.53322z m4.702705-115.099045c-62.204105 0-77.741565 5.004751-80.408786 8.565825 0 22.742541 33.769786 50.214408 75.706081 50.214408 48.72875 0 85.138113-26.509415 86.211144-50.791879-3.739229-2.983602-19.276689-7.988353-81.508439-7.988354z"  horiz-adv-x="1024" />

    
    <glyph glyph-name="xiangmu" unicode="&#58941;" d="M808.137329 832.954261H211.308429c-40.523333 0-73.495513-32.944534-73.495512-73.467867v-749.346858c0-40.523333 32.971155-73.495513 73.495512-73.495512h596.8289c40.523333 0 73.482202 32.972179 73.482202 73.495512V759.486394c0 40.523333-32.958869 73.467868-73.482202 73.467867z m17.443934-822.814725c0-9.631689-7.825556-17.457245-17.443934-17.457244H211.308429c-9.631689 0-17.457245 7.825556-17.457244 17.457244V759.486394c0 9.604044 7.825556 17.4296 17.457244 17.429599h596.8289c9.618379 0 17.443934-7.825556 17.443934-17.429599v-749.346858zM718.539172 629.104836H448.568256c-15.472955 0-28.018622-12.532356-28.018622-28.019646s12.545667-28.019646 28.018622-28.019645h269.970916c15.472955 0 28.018622 12.532356 28.018622 28.019645s-12.545667 28.019646-28.018622 28.019646zM718.539172 410.150031H448.568256c-15.472955 0-28.018622-12.532356-28.018622-28.018622 0-15.487289 12.545667-28.019646 28.018622-28.019646h269.970916c15.472955 0 28.018622 12.532356 28.018622 28.019646s-12.545667 28.018622-28.018622 28.018622zM718.539172 196.559361H448.568256c-15.472955 0-28.018622-12.532356-28.018622-28.019645s12.545667-28.018622 28.018622-28.018622h269.970916c15.472955 0 28.018622 12.532356 28.018622 28.018622 0 15.487289-12.545667 28.019646-28.018622 28.019645zM321.933095 601.078023m-46.177228 0a46.177228 46.177228 0 1 1 92.354457 0 46.177228 46.177228 0 1 1-92.354457 0ZM321.933095 382.118099m-46.177228 0a46.177228 46.177228 0 1 1 92.354457 0 46.177228 46.177228 0 1 1-92.354457 0ZM321.933095 168.531524m-46.177228 0a46.177228 46.177228 0 1 1 92.354457 0 46.177228 46.177228 0 1 1-92.354457 0Z"  horiz-adv-x="1024" />

    
    <glyph glyph-name="c21_hide" unicode="&#58883;" d="M576.992 752.981v-425.375l0.932-1.057-285.856-281.091c69.77-58.734 159.822-94.141 258.175-94.141 221.646 0 401.318 179.673 401.318 401.332 0.001 212.647-165.407 386.548-374.569 400.334zM124.294 339.845c6.315-95.9 46.32-182.59 108.273-248.37l314.826 248.37h-423.099zM532.398 811.962c-236.421 0-428.064-191.655-428.064-428.077h428.064v428.077zM576.992 327.605l-0.734 0.833-3.25-2.563h3.984z"  horiz-adv-x="1024" />

    
    <glyph glyph-name="dashuju" unicode="&#58889;" d="M736.233 777.808H287.31L62.848 389.029 287.31 0.251h448.923l224.461 388.778-224.46 388.779zM714.634 37.66H308.908L106.046 389.029l202.863 351.368h405.726l202.862-351.369-202.863-351.367zM702.028 428.42c-1.821 0-3.613-0.122-5.377-0.335l-57.532 89.132c9.022 11.031 14.445 25.116 14.445 40.445 0 35.285-28.706 63.993-63.992 63.993s-63.993-28.708-63.993-63.993c0-20.232 9.448-38.289 24.153-50.024L432.362 272.71a57.62 57.62 0 0 1-6.605 0.392 57.307 57.307 0 0 1-12.383-1.36l-56.376 88.752a44.319 44.319 0 0 1 6.636 23.387c0 24.598-19.941 44.54-44.54 44.54s-44.538-19.942-44.538-44.54 19.941-44.539 44.539-44.539c1.71 0 3.397 0.107 5.058 0.294l56.384-88.765c-7.465-9.655-11.918-21.757-11.918-34.907 0-31.556 25.582-57.138 57.138-57.138s57.138 25.582 57.138 57.138c0 15.255-5.99 29.103-15.732 39.35l119.125 238.438a63.817 63.817 0 0 1 20.238 2.215L663.952 407a44.33 44.33 0 0 1-6.463-23.118c0-24.598 19.941-44.539 44.539-44.539s44.539 19.941 44.539 44.54c0 24.596-19.941 44.537-44.539 44.537zM564.486 557.661c0 13.832 11.253 25.085 25.086 25.085s25.085-11.253 25.085-25.085-11.253-25.085-25.085-25.085-25.086 11.254-25.086 25.085z"  horiz-adv-x="1024" />

    
    <glyph glyph-name="ic_my_location_px" unicode="&#59163;" d="M512 554.666667c-94.293333 0-170.666667-76.373333-170.666667-170.666667s76.373333-170.666667 170.666667-170.666667 170.666667 76.373333 170.666667 170.666667-76.373333 170.666667-170.666667 170.666667z m381.44-128C873.813333 604.586667 732.586667 745.813333 554.666667 765.44V853.333333h-85.333334v-87.893333C291.413333 745.813333 150.186667 604.586667 130.56 426.666667H42.666667v-85.333334h87.893333c19.626667-177.92 160.853333-319.146667 338.773333-338.773333V-85.333333h85.333334v87.893333c177.92 19.626667 319.146667 160.853333 338.773333 338.773333H981.333333v85.333334h-87.893333zM512 85.333333c-164.906667 0-298.666667 133.76-298.666667 298.666667s133.76 298.666667 298.666667 298.666667 298.666667-133.76 298.666667-298.666667-133.76-298.666667-298.666667-298.666667z"  horiz-adv-x="1024" />

    
    <glyph glyph-name="file_csv" unicode="&#59176;" d="M170.496228 861.866689C132.881319 861.866689 102.400273 831.14671 102.400273 793.839001v-853.776497C102.400273-97.552404 132.778919-127.999317 170.803427-127.999317h716.560589A68.437288 68.437288 0 0 1 955.733038-59.56203V666.828953L761.787567 861.866689H170.496228zM68.266962 810.905657v-853.776498A85.094343 85.094343 0 0 1 153.736772-127.999317h716.560589A85.503943 85.503943 0 0 1 955.733038-42.495374V683.895608a17.134922 17.134922 0 0 1-4.949331 12.049059L756.838237 890.982403A17.169055 17.169055 0 0 1 744.720912 896H153.429572A85.26501 85.26501 0 0 1 68.266962 810.905657zM744.720912 861.866689l-12.117326 5.017597 193.945471-195.037737L921.599727 683.895608v-726.356849c0-28.398914-23.005851-51.404766-51.336499-51.404766H153.736772A50.995166 50.995166 0 0 0 102.400273-42.904974V810.905657C102.400273 838.894971 125.337858 861.866689 153.429572 861.866689h591.29134zM802.064873 657.032693H938.666382a17.066655 17.066655 0 0 1 12.083192 29.149847l-204.799863 204.799863A17.066655 17.066655 0 0 1 716.799863 878.899211v-136.601509a85.333276 85.333276 0 0 1 85.26501-85.265009zM750.933174 878.899211l-29.149847-12.083192 204.799863-204.799863 12.083192 29.149847h-136.601509A51.199966 51.199966 0 0 0 750.933174 742.297702V878.899211zM391.27048 259.243091l71.065553 103.799398-59.80156 92.296471c-5.631996 8.942927-9.864527 16.657056-12.663458 23.074118s-4.232531 12.595192-4.232531 18.534388c0 6.075729 2.696532 11.502926 8.123728 16.349856s12.049059 7.236262 19.831454 7.236262c8.942927 0 15.940256-2.628265 20.923719-7.918928s11.878392-15.05279 20.684786-29.354648l47.650102-77.141281 50.926899 77.141281 10.71786 16.691189c2.969598 4.64213 5.802663 8.465061 8.567461 11.468793s5.802663 5.324796 9.215993 6.826662 7.338662 2.286932 11.810126 2.286932c8.089595 0 14.711457-2.423465 19.831453-7.270396s7.679995-10.581326 7.679995-17.237321c0-9.69386-5.56373-22.835185-16.691189-39.423974l-62.600491-93.593538 67.379155-103.799397c6.075729-9.113594 10.478926-16.657056 13.209591-22.630385s4.130131-11.673592 4.130131-16.998389a26.828782 26.828782 0 0 0-14.097058-23.825051 30.924779 30.924779 0 0 0-15.15519-3.686397c-6.075729 0-11.195726 1.262932-15.394123 3.788797s-7.577595 5.66613-10.171726 9.420794-7.441062 11.059193-14.506657 21.879452l-55.910363 87.961542-59.357827-90.555673c-4.607997-7.236262-7.918928-12.287992-9.864527-15.15519s-4.300797-5.700263-7.031462-8.465061-6.007463-4.915197-9.762127-6.485329-8.157861-2.389332-13.209591-2.389332c-7.816528 0-14.267724 2.389332-19.38772 7.133862s-7.714128 11.707726-7.714128 20.821319c0 10.683726 5.25653 23.756784 15.803722 39.219174zM726.76679 1.36593c-9.89866-7.714128-19.49012-13.482658-28.740247-17.339722s-19.626654-5.768529-31.12958-5.76853c-10.51306 0-19.729054 2.082132-27.682114 6.212263s-14.062924 9.762127-18.363722 16.861855-6.451196 14.84799-6.451195 23.142385c0 11.195726 3.549864 20.753053 10.649593 28.637848s16.861855 13.209591 29.252247 15.906122c2.594132 0.6144 9.045327 1.945599 19.353587 4.061864s19.114654 4.027731 26.487449 5.76853 15.325856 3.891197 23.927451 6.382929c-0.512 10.786126-2.662398 18.739188-6.519463 23.790917s-11.810125 7.577595-23.92745 7.577595c-10.41066 0-18.227188-1.433599-23.483718-4.33493s-9.762127-7.236262-13.516791-13.038925-6.417062-9.625594-7.953061-11.468792-4.881063-2.764798-9.966927-2.764798c-4.607997 0-8.567461 1.467732-11.912526 4.43733s-5.017597 6.724262-5.017596 11.332259c0 7.202129 2.559998 14.199457 7.645861 20.991986s13.038925 12.390392 23.859184 16.793589 24.234651 6.519462 40.31144 6.519462c17.988255 0 32.153579-2.116265 42.461839-6.382929s17.578655-10.990926 21.811185-20.172786 6.382929-21.401586 6.382929-36.590909l-0.068266-24.439451c-0.034133-6.690129-0.136533-14.165324-0.238934-22.357318 0-7.714128 1.262932-15.735456 3.822931-24.063984s3.822931-13.721591 3.822931-16.110923c0-4.198397-1.979732-8.021328-5.939196-11.468792s-8.430928-5.188263-13.414391-5.188263c-4.198397 0-8.362661 1.979732-12.458659 5.939196s-8.430928 9.625594-13.004791 17.134922z m-2.730665 59.255427c-6.007463-2.184532-14.711457-4.53973-26.180249-6.963195s-19.38772-4.266664-23.790917-5.393064-8.601594-3.413331-12.595192-6.758395-6.007463-8.021328-6.007463-14.028791c0-6.212263 2.355198-11.468792 7.065596-15.837856s10.854393-6.519462 18.466121-6.519462c8.089595 0 15.56479 1.774932 22.425585 5.324796s11.878392 8.123728 15.086923 13.721591c3.686398 6.212263 5.56373 16.383989 5.56373 30.583446v5.87093z m121.582853-82.670878a25.66825 25.66825 0 0 0-17.100789 6.075729c-4.812797 4.061864-7.202129 9.727994-7.202129 17.032522 0 6.314662 2.355198 11.605326 7.065596 15.906123a23.859184 23.859184 0 0 0 16.657055 6.451195c4.812797 0 9.147727-1.297066 13.038925-3.891197 3.891197-2.594132 6.963195-6.417062 9.147727-11.468792s3.310931-11.263992 3.310931-18.670921c0-9.89866-2.116265-19.182921-6.314662-27.818648a61.098626 61.098626 0 0 0-15.35999-20.548253c-6.041596-5.05173-11.537059-7.577595-16.418122-7.577595-3.106131 0-5.631996 1.023999-7.577595 3.071998s-2.935465 4.43733-2.935465 7.133862c0 4.095997 2.047999 7.406928 6.143996 9.89866 11.707726 6.485329 17.544522 14.609057 17.544522 24.405317z"  horiz-adv-x="1024" />

    
    <glyph glyph-name="biaoge1" unicode="&#58989;" d="M896 768h-768c-35.2 0-64-28.8-64-64v-640c0-35.2 28.8-64 64-64h768c35.2 0 64 28.8 64 64v640c0 35.2-28.8 64-64 64zM352 64h-224v160h224v-160zM352 288h-224v160h224v-160zM352 512h-224v160h224v-160zM608 64h-192v160h192v-160zM608 288h-192v160h192v-160zM608 512h-192v160h192v-160zM896 64h-224v160h224v-160zM896 288h-224v160h224v-160zM896 512h-224v160h224v-160z"  horiz-adv-x="1024" />

    
    <glyph glyph-name="CSV" unicode="&#59104;" d="M249.856 506.88v178.176c0 45.056 36.864 81.92 81.92 81.92h456.704l163.84-167.936v-337.92c0-12.288-8.192-20.48-20.48-20.48s-20.48 8.192-20.48 20.48V558.08h-102.4c-34.816 0-61.44 26.624-61.44 61.44v106.496h-415.744c-22.528 0-40.96-18.432-40.96-40.96v-178.176h456.704c22.528 0 40.96-18.432 40.96-40.96v-286.72c0-22.528-18.432-40.96-40.96-40.96h-456.704v-61.44c0-22.528 18.432-40.96 40.96-40.96h538.624c22.528 0 40.96 18.432 40.96 40.96v61.44c0 12.288 8.192 20.48 20.48 20.48s20.48-8.192 20.48-20.48v-61.44c0-45.056-36.864-81.92-81.92-81.92h-538.624c-45.056 0-81.92 36.864-81.92 81.92v61.44h-137.216c-22.528 0-40.96 18.432-40.96 40.96v286.72c0 22.528 18.432 40.96 40.96 40.96h137.216z m538.624 202.752v-90.112c0-10.24 8.192-20.48 20.48-20.48h86.016l-106.496 110.592z m-473.088-350.208c-14.336 38.912-40.96 57.344-83.968 59.392-59.392-4.096-90.112-36.864-94.208-102.4 2.048-65.536 34.816-100.352 94.208-102.4 47.104 0 77.824 22.528 88.064 67.584l-36.864 12.288c-4.096-32.768-22.528-47.104-49.152-47.104-34.816 2.048-53.248 26.624-55.296 71.68 2.048 45.056 20.48 67.584 55.296 69.632 24.576-2.048 40.96-14.336 47.104-36.864l34.816 8.192z m26.624-79.872c10.24-45.056 38.912-65.536 90.112-65.536s75.776 20.48 77.824 59.392c0 24.576-14.336 40.96-40.96 53.248l-36.864 12.288c-28.672 6.144-43.008 16.384-40.96 28.672 2.048 16.384 14.336 22.528 34.816 24.576 24.576 0 38.912-10.24 43.008-32.768l36.864 8.192c-6.144 36.864-34.816 57.344-81.92 55.296-45.056-2.048-69.632-20.48-71.68-53.248-2.048-28.672 16.384-47.104 57.344-57.344 10.24-2.048 20.48-4.096 30.72-8.192 22.528-6.144 32.768-16.384 30.72-30.72-2.048-18.432-14.336-26.624-38.912-28.672-28.672 0-47.104 14.336-51.2 45.056l-38.912-10.24z m380.928 137.216h-40.96l-49.152-145.408c-4.096-12.288-6.144-18.432-6.144-20.48 0 4.096-2.048 10.24-6.144 20.48l-51.2 147.456h-40.96l77.824-198.656h43.008l73.728 196.608z"  horiz-adv-x="1024" />

    
    <glyph glyph-name="biaoge2" unicode="&#58887;" d="M514 767.1h378.1c43.7 0 58.2-14.6 58.2-57.7v-650.8c0-43.7-14.6-58.2-57.7-58.2H129.9c-40.2 0-56.2 15.6-56.2 55.7V713.4c0 38.7 16.1 53.7 55.2 54.2 128.5-0.5 256.6-0.5 385.1-0.5zM348.8 204.7H130.9v-147.6h217.9V204.7z m271.7-148.6V204.2H404v-148.1h216.5z m54.7 1.5h217.9V204.7H675.2v-147.1zM131.4 403.1v-146.6h216.9V403.1H131.4z m543.8-148.2c70.8 0 139.6 0 207.9 0.5 3.5 0 10.5 6.5 10.5 10 0.5 45.7 0.5 91.4 0.5 137.1H674.7c0.5-49.6 0.5-96.8 0.5-147.6zM403 256.5h218V402.6H403v-146.1z m-54.7 197.3V600.9H129.9c0-45.7-0.5-89.9 0.5-133.6 0-4.5 9-13.1 14.1-13.1 66.7-0.9 134.5-0.4 203.8-0.4z m55.2 2h216.9V601.4H403.5v-145.6z m489.1-1V601.4H675.7v-146.6h216.9z"  horiz-adv-x="1024" />

    
    <glyph glyph-name="folder" unicode="&#59086;" d="M493.5 679l-135.5 130h-294v-850h896v720h-466.5zM337.9 759l135.5-130h436.6v-62.5h-796v192.5h223.9zM114 9v507.5h796v-507.5h-796z"  horiz-adv-x="1024" />

    
    <glyph glyph-name="csv" unicode="&#59221;" d="M160 832c-35.2 0-64-28.8-64-64v-800c0-35.2 28.8-64 64-64h672c35.2 0 64 28.8 64 64V649.6L713.6 832H160zM908.8 675.2l-182.4 182.4c-3.2 3.2-6.4 6.4-12.8 6.4H160C115.2 864 80 828.8 80 784v-800C80-60.8 115.2-96 160-96h672c44.8 0 80 35.2 80 80V665.6c0 3.2-3.2 6.4-3.2 9.6z m-51.2-3.2H768c-25.6 0-48 22.4-48 48V809.6L857.6 672zM832-64H160c-25.6 0-48 22.4-48 48v800C112 809.6 134.4 832 160 832h528v-112C688 675.2 723.2 640 768 640h112v-656c0-25.6-22.4-48-48-48zM550.4 262.4l-64 96-67.2-96c-9.6-12.8-19.2-22.4-25.6-28.8-6.4-6.4-16-9.6-25.6-9.6-12.8 0-22.4 3.2-28.8 9.6-6.4 6.4-12.8 16-12.8 25.6 0 9.6 6.4 22.4 19.2 41.6l80 115.2-70.4 96c-12.8 16-19.2 28.8-19.2 41.6 0 9.6 3.2 16 9.6 22.4s16 9.6 28.8 9.6c9.6 0 19.2-3.2 25.6-9.6 6.4-6.4 16-16 25.6-28.8l57.6-80 57.6 80c9.6 12.8 16 22.4 25.6 28.8 6.4 6.4 16 9.6 25.6 9.6 12.8 0 22.4-3.2 28.8-9.6 6.4-6.4 12.8-16 12.8-25.6 0-6.4 0-12.8-3.2-19.2-3.2-6.4-9.6-12.8-16-22.4l-70.4-96 80-115.2c12.8-19.2 19.2-32 19.2-41.6 0-9.6-3.2-16-12.8-25.6s-19.2-9.6-28.8-9.6c-9.6 0-19.2 3.2-25.6 9.6-9.6 9.6-16 19.2-25.6 32zM716.8 73.6c-9.6-6.4-19.2-12.8-25.6-16-9.6-3.2-19.2-6.4-28.8-6.4-9.6 0-19.2 3.2-25.6 6.4-6.4 3.2-12.8 9.6-16 16s-6.4 12.8-6.4 22.4c0 9.6 3.2 19.2 9.6 25.6s16 12.8 28.8 16c3.2 0 9.6 3.2 19.2 3.2s19.2 3.2 25.6 6.4c6.4 3.2 12.8 3.2 22.4 6.4 0 9.6-3.2 16-6.4 22.4-3.2 3.2-9.6 6.4-22.4 6.4-9.6 0-16 0-22.4-3.2-6.4-3.2-9.6-6.4-12.8-12.8-3.2-6.4-6.4-9.6-6.4-9.6 0-3.2-3.2-3.2-9.6-3.2-3.2 0-9.6 0-9.6 3.2-3.2 3.2-3.2 6.4-3.2 9.6 0 6.4 3.2 12.8 6.4 19.2s12.8 12.8 22.4 16 22.4 6.4 38.4 6.4 28.8-3.2 38.4-6.4c9.6-3.2 16-9.6 19.2-19.2 3.2-9.6 6.4-19.2 6.4-35.2v-44.8c0-6.4 0-16 3.2-22.4 3.2-6.4 3.2-12.8 3.2-16 0-3.2-3.2-6.4-6.4-9.6-3.2-3.2-6.4-6.4-12.8-6.4-3.2 0-6.4 3.2-12.8 6.4-9.6 6.4-12.8 12.8-16 19.2z m-3.2 57.6c-6.4-3.2-12.8-3.2-25.6-6.4-9.6-3.2-19.2-3.2-22.4-6.4-3.2 0-9.6-3.2-12.8-6.4-3.2-3.2-6.4-6.4-6.4-12.8s3.2-9.6 6.4-16c3.2-3.2 9.6-6.4 16-6.4s16 3.2 22.4 6.4c6.4 3.2 9.6 6.4 12.8 12.8 3.2 6.4 6.4 16 6.4 28.8v6.4zM816 51.2c-6.4 0-12.8 3.2-16 6.4-3.2 3.2-6.4 9.6-6.4 16s3.2 9.6 6.4 16c3.2 3.2 9.6 6.4 16 6.4 3.2 0 9.6 0 12.8-3.2l9.6-9.6c3.2-3.2 3.2-9.6 3.2-16 0-9.6-3.2-19.2-6.4-25.6-3.2-9.6-9.6-16-16-19.2-6.4-3.2-9.6-6.4-16-6.4-3.2 0-6.4 0-6.4 3.2-3.2 3.2-3.2 3.2-3.2 6.4s3.2 6.4 6.4 9.6c9.6 0 16 9.6 16 16z"  horiz-adv-x="1024" />

    
    <glyph glyph-name="yonghu" unicode="&#58993;" d="M593.066667 396.8C695.466667 430.933333 768 526.933333 768 640c0 140.8-115.2 256-256 256S256 780.8 256 640c0-113.066667 72.533333-209.066667 174.933333-243.2C249.6 360.533333 85.333333 206.933333 85.333333 21.333333c0-83.2 66.133333-149.333333 149.333334-149.333333h554.666666c83.2 0 149.333333 66.133333 149.333334 149.333333 0 185.6-164.266667 339.2-345.6 375.466667zM298.666667 640c0 117.333333 96 213.333333 213.333333 213.333333s213.333333-96 213.333333-213.333333-96-213.333333-213.333333-213.333333-213.333333 96-213.333333 213.333333z m490.666666-725.333333H234.666667c-59.733333 0-106.666667 46.933333-106.666667 106.666666 0 196.266667 202.666667 341.333333 384 341.333334s384-145.066667 384-341.333334c0-59.733333-46.933333-106.666667-106.666667-106.666666z"  horiz-adv-x="1024" />

    
    <glyph glyph-name="csv1" unicode="&#59202;" d="M136.53333333333336 725.0602666666666A102.53653333333334 102.53653333333334 0 0 0 239.03573333333333 827.7333333333333H614.4l273.06666666666666-273.06666666666666v-512.2389333333333A102.29759999999999 102.29759999999999 0 0 0 785.0325333333333-59.73333333333335H238.93333333333334a102.46826666666665 102.46826666666665 0 0 0-102.4 102.67306666666667V725.0602666666666z m716.8-184.5248L600.2687999999999 793.6H239.03573333333333A68.4032 68.4032 0 0 1 170.66666666666669 725.0602666666666v-682.1205333333332C170.66666666666669 4.983466666666686 201.216-25.600000000000136 238.96746666666667-25.600000000000136H785.0666666666666a68.16426666666666 68.16426666666666 0 0 1 68.26666666666667 68.02773333333333V540.5354666666667zM336.21333333333337 292.1813333333333c-26.282666666666668 0-47.104-9.216000000000001-62.12266666666666-27.98933333333333-13.994666666666665-17.066666666666666-20.82133333333333-38.912-20.82133333333333-65.87733333333333s6.826666666666667-48.81066666666666 20.82133333333333-65.536c14.677333333333333-17.749333333333333 35.157333333333334-26.624 61.781333333333336-26.624 21.845333333333333 0 39.25333333333333 5.802666666666667 52.565333333333335 17.066666666666666 13.653333333333334 11.605333333333334 22.186666666666667 29.013333333333332 26.282666666666668 51.541333333333334h-27.30666666666667c-4.096-30.378666666666668-21.504-45.73866666666667-51.541333333333334-45.73866666666667-17.749333333333333 0-31.40266666666667 6.485333333333333-40.61866666666666 18.773333333333333-9.557333333333334 12.288-13.994666666666665 29.354666666666667-13.994666666666665 50.858666666666664s4.778666666666667 38.57066666666666 14.335999999999999 51.2c9.898666666666665 12.970666666666666 23.552 19.456 40.61866666666666 19.456 13.994666666666665 0 25.258666666666667-3.072 34.13333333333333-9.898666666666665 8.533333333333333-6.826666666666667 13.994666666666665-17.066666666666666 16.384-30.72h26.965333333333334c-3.072 21.504-11.264000000000001 37.54666666666667-24.917333333333332 48.128-13.312 10.24-30.72 15.36-52.565333333333335 15.36z m173.056 0c-19.79733333333333 0-36.181333333333335-4.437333333333333-48.46933333333333-13.312-13.312-8.874666666666666-19.79733333333333-20.48-19.79733333333333-35.498666666666665 0-15.018666666666666 6.485333333333333-26.282666666666668 20.138666666666666-34.474666666666664 8.192-5.461333333333333 22.869333333333334-10.581333333333333 43.690666666666665-15.701333333333334 19.11466666666667-4.778666666666667 31.744-8.533333333333333 37.54666666666667-11.264000000000001 10.922666666666666-5.461333333333333 16.72533333333333-12.970666666666666 16.72533333333333-22.869333333333334 0-19.79733333333333-16.042666666666666-30.037333333333333-47.44533333333333-30.037333333333333-15.018666666666666 0-26.282666666666668 2.7306666666666666-33.792 8.192-7.509333333333333 6.144-12.629333333333333 16.042666666666666-14.677333333333333 30.037333333333333h-26.624c4.096-40.61866666666666 29.354666666666667-61.098666666666674 75.77600000000001-61.098666666666674 49.834666666666664 0 74.752 18.432000000000002 74.752 54.61333333333334 0 15.36-7.167999999999999 27.30666666666667-21.162666666666667 36.181333333333335-9.216000000000001 5.802666666666667-24.234666666666666 11.264000000000001-45.397333333333336 16.384-17.749333333333333 4.778666666666667-30.037333333333333 8.533333333333333-36.522666666666666 11.605333333333334-10.24 5.12-15.018666666666666 11.605333333333334-15.018666666666666 19.11466666666667 0 7.850666666666667 3.7546666666666666 13.994666666666665 11.264000000000001 18.432000000000002 6.826666666666667 4.778666666666667 16.384 6.826666666666667 28.671999999999997 6.826666666666667 13.994666666666665 0 24.917333333333332-2.7306666666666666 32.42666666666666-8.192 6.826666666666667-4.778666666666667 11.264000000000001-12.970666666666666 13.653333333333334-23.89333333333333h26.624c-4.778666666666667 36.864000000000004-28.671999999999997 54.95466666666667-72.36266666666667 54.95466666666667z m90.45333333333333-4.778666666666667h30.037333333333333L680.2773333333332 145.0666666666666l50.51733333333333 142.33599999999998h30.037333333333333L693.9306666666666 110.9333333333334h-27.648l-66.56 176.46933333333334zM580.2666666666667 827.7333333333333h34.13333333333333v-204.86826666666664C614.4 584.9429333333334 644.9493333333334 554.6666666666666 682.5984000000001 554.6666666666666H887.4666666666667v-34.13333333333333H682.5642666666666A102.4 102.4 0 0 0 580.2666666666667 622.8309333333333V827.7333333333333z"  horiz-adv-x="1024" />

    
    <glyph glyph-name="CSV1" unicode="&#58909;" d="M249.856 506.88V685.056c0 45.056 36.864 81.92 81.92 81.92H788.48L952.32 599.04v-337.92c0-12.288-8.192-20.48-20.48-20.48s-20.48 8.192-20.48 20.48V558.08h-102.4c-34.816 0-61.44 26.624-61.44 61.44V726.016H331.776c-22.528 0-40.96-18.432-40.96-40.96V506.88H747.52c22.528 0 40.96-18.432 40.96-40.96V179.2c0-22.528-18.432-40.96-40.96-40.96H290.816v-61.44c0-22.528 18.432-40.96 40.96-40.96H870.4c22.528 0 40.96 18.432 40.96 40.96v61.44c0 12.288 8.192 20.48 20.48 20.48s20.48-8.192 20.48-20.48v-61.44c0-45.056-36.864-81.92-81.92-81.92H331.776c-45.056 0-81.92 36.864-81.92 81.92v61.44H112.64c-22.528 0-40.96 18.432-40.96 40.96V465.92c0 22.528 18.432 40.96 40.96 40.96h137.216zM788.48 709.632v-90.112c0-10.24 8.192-20.48 20.48-20.48h86.016L788.48 709.632zM315.392 359.424c-14.336 38.912-40.96 57.344-83.968 59.392-59.392-4.096-90.112-36.864-94.208-102.4 2.048-65.536 34.816-100.352 94.208-102.4 47.104 0 77.824 22.528 88.064 67.584l-36.864 12.288c-4.096-32.768-22.528-47.104-49.152-47.104-34.816 2.048-53.248 26.624-55.296 71.68 2.048 45.056 20.48 67.584 55.296 69.632 24.576-2.048 40.96-14.336 47.104-36.864l34.816 8.192z m26.624-79.872c10.24-45.056 38.912-65.536 90.112-65.536s75.776 20.48 77.824 59.392c0 24.576-14.336 40.96-40.96 53.248l-36.864 12.288c-28.672 6.144-43.008 16.384-40.96 28.672 2.048 16.384 14.336 22.528 34.816 24.576 24.576 0 38.912-10.24 43.008-32.768l36.864 8.192c-6.144 36.864-34.816 57.344-81.92 55.296-45.056-2.048-69.632-20.48-71.68-53.248-2.048-28.672 16.384-47.104 57.344-57.344 10.24-2.048 20.48-4.096 30.72-8.192 22.528-6.144 32.768-16.384 30.72-30.72-2.048-18.432-14.336-26.624-38.912-28.672-28.672 0-47.104 14.336-51.2 45.056l-38.912-10.24z m380.928 137.216h-40.96L632.832 271.36c-4.096-12.288-6.144-18.432-6.144-20.48 0 4.096-2.048 10.24-6.144 20.48l-51.2 147.456h-40.96l77.824-198.656h43.008l73.728 196.608z"  horiz-adv-x="1024" />

    
    <glyph glyph-name="canshushezhi" unicode="&#58920;" d="M108.6 674.9h158.8v-28.2c0-24.3 16.2-44.3 40.5-44.3s40.5 19.9 40.5 44.3v28.2h450.4c24.3 0 44.2 16.2 44.2 40.5s-19.8 40.5-44.2 40.5H348.4v31.8c0 24.3-16.2 44.3-40.5 44.3s-40.5-19.9-40.5-44.3V756H108.6c-24.3 0-44.2-16.2-44.2-40.5-0.1-24.4 19.8-40.6 44.2-40.6z m690.1-186.5H607.6v24.3c0 24.3-16.2 44.3-40.5 44.3s-40.5-19.9-40.5-44.3v-24.3h-418c-24.3 0-44.2-24.3-44.2-48.7S84.2 391 108.6 391h418v-19c0-24.3 16.2-44.3 40.5-44.3s40.5 19.9 40.5 44.3v19.1h191.1c24.3 0 44.2 24.3 44.2 48.7s-19.8 48.6-44.2 48.6z m-368-275.7h-61.6v25.7c0 24.3-16.2 44.3-40.5 44.3s-40.5-19.9-40.5-44.3v-25.7H108.6C84 212.7 64 192.7 64 168c0-24.6 20-44.6 44.6-44.6h179.5v-26.1c0-24.3 16.2-44.3 40.5-44.3s40.5 19.9 40.5 44.3v26.1h61.6c24.6 0 44.6 20 44.6 44.6 0 24.7-20 44.7-44.6 44.7z m518.5-138.5L942 78c-11.3 6.6-18.9 18.8-18.9 32.8 0 14 7.6 26.2 18.8 32.8l7.2 3.8c7.5 3.9 11.6 12.7 10.2 20.9-1.4 4.2-3 8.5-4.7 12.6-1.7 4.2-3.6 8.3-5.6 12.3-4.8 6.8-13.9 10.1-22 7.6l-7.8-2.4c-12.6-3.3-26.6 0-36.5 9.9-9.9 9.9-13.2 23.9-9.9 36.5l2.4 7.8c2.6 8.1-0.8 17.2-7.6 22-4 2-8.1 3.9-12.3 5.6-4.2 1.7-8.4 3.3-12.6 4.7-8.2 1.4-17-2.7-20.9-10.2l-3.8-7.2c-6.6-11.3-18.8-18.9-32.8-18.9-14 0-26.2 7.6-32.8 18.9l-3.8 7.2c-3.9 7.5-12.7 11.6-20.9 10.2-4.3-1.4-8.5-2.9-12.7-4.7-4.2-1.7-8.3-3.6-12.3-5.6-6.8-4.9-10.1-13.9-7.6-22.1l2.4-7.8c3.3-12.6 0-26.6-9.9-36.5-9.9-9.9-23.9-13.2-36.5-9.9l-7.8 2.5c-8.1 2.6-17.2-0.8-22-7.6-2-4-3.9-8.1-5.6-12.3-1.7-4.2-3.3-8.4-4.7-12.6-1.4-8.2 2.7-17 10.2-21l7.2-3.8c11.3-6.6 18.9-18.8 18.9-32.8 0-14-7.6-26.2-18.8-32.8l-7.2-3.8c-7.5-3.9-11.6-12.7-10.2-20.9 1.4-4.2 3-8.5 4.7-12.6 1.7-4.2 3.6-8.3 5.6-12.3 4.8-6.8 13.9-10.1 22-7.6l7.8 2.4c12.6 3.3 26.7 0.1 36.5-9.9 9.9-9.9 13.2-23.9 9.9-36.5l-2.5-7.8c-2.5-8.1 0.8-17.2 7.6-22 4-2 8.1-3.9 12.3-5.6 4.2-1.8 8.4-3.3 12.6-4.7 8.2-1.4 17 2.7 20.9 10.2l3.8 7.2c6.6 11.3 18.8 18.9 32.8 18.9 14 0 26.2-7.6 32.8-18.8l3.8-7.3c3.9-7.5 12.7-11.6 20.9-10.2 4.2 1.4 8.5 3 12.6 4.7 4.2 1.7 8.3 3.6 12.3 5.6 6.8 4.8 10.1 13.9 7.6 22l-2.4 7.7c-3.3 12.6-0.1 26.7 9.9 36.6 9.9 9.9 23.9 13.2 36.5 9.9l7.8-2.5c8.1-2.5 17.2 0.8 22 7.6 2 4 3.9 8.1 5.6 12.3 1.7 4.2 3.3 8.4 4.7 12.6 1.5 8.4-2.5 17.2-10 21.1m-163.9-55.8c-51 0-92.4 41.4-92.4 92.4 0 51 41.4 92.4 92.4 92.4s92.4-41.4 92.4-92.4c0-51-41.4-92.4-92.4-92.4m0 11.4"  horiz-adv-x="1024" />

    
    <glyph glyph-name="peizhi" unicode="&#58890;" d="M703.147 237.227l80.213 138.24c3.413 8.533 3.413 20.48-3.413 23.893l-92.16 63.147c0 11.946 3.413 23.893 3.413 39.253s0 27.307-3.413 39.253l83.626 66.56c8.534 8.534 8.534 15.36 3.414 23.894l-80.214 138.24c-3.413 3.413-11.946 8.533-23.893 3.413l-100.693-39.253c-20.48 15.36-44.374 27.306-68.267 39.253L486.4 875.52C489.813 887.467 477.867 896 469.333 896H308.907c-6.827 0-18.774-8.533-18.774-15.36l-17.066-107.52c-23.894-8.533-44.374-23.893-68.267-39.253l-95.573 39.253c-11.947 3.413-20.48 0-27.307-8.533L1.707 626.347c-3.414-3.414 0-15.36 8.533-23.894l83.627-63.146c0-11.947-3.414-23.894-3.414-39.254s0-27.306 3.414-39.253L10.24 394.24c-8.533-8.533-8.533-15.36-3.413-23.893l78.506-136.534c3.414-3.413 11.947-8.533 23.894-3.413l100.693 39.253c20.48-15.36 44.373-27.306 68.267-39.253l15.36-102.4c0-8.533 8.533-15.36 20.48-15.36h160.426c8.534 0 20.48 8.533 20.48 15.36l15.36 102.4c23.894 11.947 47.787 23.893 68.267 39.253L679.253 230.4c6.827-5.12 18.774-1.707 23.894 6.827zM390.827 363.52c-76.8 0-139.947 63.147-139.947 138.24 0 75.093 64.853 138.24 139.947 138.24 76.8 0 139.946-63.147 139.946-138.24 0-75.093-64.853-138.24-139.946-138.24z m629.76-341.333L972.8 54.613c0 6.827 1.707 11.947 1.707 20.48s0 13.654-1.707 20.48l44.373 35.84c3.414 3.414 3.414 8.534 1.707 11.947l-40.96 71.68c-1.707 1.707-6.827 3.413-11.947 1.707l-52.906-20.48c-10.24 8.533-22.187 13.653-35.84 20.48l-8.534 52.906c1.707 6.827-3.413 10.24-8.533 10.24h-83.627c-3.413 0-10.24-3.413-10.24-8.533l-8.533-56.32c-11.947-3.413-22.187-11.947-35.84-20.48l-49.493 20.48c-6.827 1.707-10.24 0-15.36-3.413L614.4 141.653c-1.707-1.706 0-8.533 3.413-11.946l44.374-32.427c0-6.827-1.707-11.947-1.707-20.48s0-13.653 1.707-20.48l-44.374-35.84c-3.413-5.12-3.413-8.533 0-11.947l40.96-71.68c1.707-1.706 6.827-3.413 11.947-1.706l52.907 20.48c10.24-8.534 22.186-13.654 35.84-20.48L768-117.76c0-3.413 3.413-8.533 10.24-8.533h83.627c3.413 0 10.24 3.413 10.24 8.533l8.533 52.907c11.947 6.826 25.6 11.946 35.84 20.48l52.907-20.48c3.413-1.707 10.24 0 11.946 3.413l40.96 71.68c1.707 3.413 1.707 10.24-1.706 11.947z m-203.094-18.774c-39.253 0-73.386 32.427-73.386 71.68 0 39.254 34.133 71.68 73.386 71.68s73.387-32.426 73.387-71.68c0-39.253-34.133-71.68-73.387-71.68z"  horiz-adv-x="1024" />

    
    <glyph glyph-name="wodeweizhi" unicode="&#58886;" d="M512 213.333333c-93.866667 0-170.666667 76.8-170.666667 170.666667s76.8 170.666667 170.666667 170.666667 170.666667-76.8 170.666667-170.666667-76.8-170.666667-170.666667-170.666667zM512 533.333333c82.488889 0 149.333333-66.844444 149.333333-149.333333S594.488889 234.666667 512 234.666667 362.666667 301.511111 362.666667 384 429.511111 533.333333 512 533.333333m0 42.666667c-106.666667 0-192-85.333333-192-192s85.333333-192 192-192 192 85.333333 192 192-85.333333 192-192 192zM512-2.844444C298.666667-2.844444 125.155556 170.666667 125.155556 384S298.666667 770.844444 512 770.844444 898.844444 597.333333 898.844444 384 725.333333-2.844444 512-2.844444z m0 716.8c-182.044444 0-329.955556-147.911111-329.955556-329.955556S329.955556 54.044444 512 54.044444 841.955556 201.955556 841.955556 384 694.044444 713.955556 512 713.955556zM512 721.066667c-15.644444 0-28.444444 12.8-28.444444 28.444444V866.133333c0 15.644444 12.8 28.444444 28.444444 28.444445s28.444444-12.8 28.444444-28.444445v-116.622222c0-15.644444-12.8-28.444444-28.444444-28.444444zM512-126.577778c-15.644444 0-28.444444 12.8-28.444444 28.444445v116.622222c0 15.644444 12.8 28.444444 28.444444 28.444444s28.444444-12.8 28.444444-28.444444v-116.622222c0-15.644444-12.8-28.444444-28.444444-28.444445zM146.488889 355.555556H29.866667c-15.644444 0-28.444444 12.8-28.444445 28.444444s12.8 28.444444 28.444445 28.444444h116.622222c15.644444 0 28.444444-12.8 28.444444-28.444444s-12.8-28.444444-28.444444-28.444444zM994.133333 355.555556h-116.622222c-15.644444 0-28.444444 12.8-28.444444 28.444444s12.8 28.444444 28.444444 28.444444h116.622222c15.644444 0 28.444444-12.8 28.444445-28.444444s-12.8-28.444444-28.444445-28.444444z"  horiz-adv-x="1024" />

    
    <glyph glyph-name="buju" unicode="&#58965;" d="M169 727v-686h686V727H169z m640-46v-146H215V681h594zM215 489h145.8v-402H215V489z m191.8-402V489H809v-402H406.8z"  horiz-adv-x="1024" />

    
    <glyph glyph-name="rengongzhineng" unicode="&#58882;" d="M963.848581 442.237866a101.60326 101.60326 0 0 1-98.391009-76.638755h-32.754848V642.308015h32.754848a101.362974 101.362974 0 1 1 0 50.713104h-54.001235c-39.457577 62.474497-85.74435 110.911202-138.101519 144.298382-50.333704 32.122515-107.24367 51.21897-169.844634 56.909967l-0.126467 0.126466c-0.126467 0-0.126467-0.126467-0.252933-0.126466-13.152526 1.138199-26.684451 1.770532-40.342843 1.770532-79.57278 0-147.33358-22.005187-201.587749-65.636162-53.621835-42.998641-95.482277-108.38187-124.31666-194.252686l-0.505866-1.517599-0.252934-1.517599c-28.834383-143.666049-65.383228-238.389527-108.508336-281.641102-15.302458-15.302458-24.281586-30.225516-26.810918-44.51624a43.593034 43.593034 0 0 1 7.840929-34.398913c12.393726-17.325923 38.698777-29.972582 62.600963-29.972583a26.355638 26.355638 0 0 0 19.096456-8.220328c5.438063-5.438063 9.990861-13.531925 13.658392-24.534519 7.208596-21.625787 10.876127-54.633568 10.876127-98.011609 0-21.625787 7.335062-38.192911 21.752254-48.942572 14.670125-11.002594 36.042979-16.31419 65.256762-16.31419 39.71051 0 69.05076-9.105595 87.009015-27.190318 14.417192-14.417192 21.752254-34.651846 21.752254-59.945165v-83.088551l391.667037-4.299864V68.529085q7.398296 9.864394 14.417192 19.349389a8.081215 8.081215 0 0 1 0.885266-0.252934l0.632333 2.149932c35.537113 48.310238 63.10683 88.653081 82.076819 120.26973 10.876127 18.084723 19.096455 33.640114 24.534519 46.286773a127.958898 127.958898 0 0 1 6.070396 16.946523 48.854045 48.854045 0 0 1 2.023465 12.899593v28.707916h32.881315a101.464147 101.464147 0 1 1 98.011609 127.351859z m-181.606027-76.638755h-152.898111v109.899469h0.252934v50.586637h-0.252934v116.222798h152.771644v-276.708904z m181.606027 352.841793a50.966037 50.966037 0 1 0-50.83957-50.966037 50.95339 50.95339 0 0 0 50.83957 50.966037z m-213.349142-25.546252h-171.488699v-0.252933h-0.252934v-166.682969H417.361141a101.71708 101.71708 0 0 1-61.083364 62.474497c2.782265 43.757441 14.037792 84.353217 33.640113 121.154996 26.305051 49.448438 68.544893 93.964678 125.707793 132.410522C610.500921 829.099173 687.999649 779.903668 750.499439 692.894652z m-429.101148-250.656786a50.966037 50.966037 0 1 0 50.83957 50.966037 50.95339 50.95339 0 0 0-50.83957-50.966037z m340.3216-343.356799l-10.117327-13.531925v-162.003705l-290.493763 3.161664v33.007781c0 39.204644-12.267259 71.327158-36.548846 95.608744-27.82265 27.949117-69.177226 42.113375-122.799061 42.113375-25.419785 0-33.513647 5.18513-34.90478 6.196863s-1.517599 7.335062-1.517599 8.599729c0 49.448438-4.426331 86.756082-13.531925 113.9464-6.196863 18.590589-14.670125 33.134247-25.799185 44.263307a76.234062 76.234062 0 0 1-54.886501 23.01692c-7.461529 0-15.808324 3.920464-19.728789 7.082129 1.264666 2.782265 4.426331 7.967395 12.014327 15.428924 50.83957 50.966037 90.803013 151.001112 122.040262 305.796221 25.672718 75.753489 61.842164 132.789922 107.496603 169.338768 39.457577 31.616648 86.376683 49.195505 142.654317 53.495368-79.673953-69.177226-123.051995-153.151044-129.628258-251.036186a101.527381 101.527381 0 0 1 15.555391-201.840682c2.149932 0 4.299864 0.126467 6.32333 0.252933 1.517599-5.94393 3.035198-11.761393 4.679264-17.325923 13.911325-47.804372 34.14598-87.388415 61.96863-120.775596 52.483636-63.10683 136.96332-110.531802 270.132642-151.127578-1.011733-1.138199-1.896999-2.402865-2.908732-3.667531z m120.522663 188.814623a3.907818 3.907818 0 0 0-0.252933-1.011733 92.181499 92.181499 0 0 0-3.793998-10.370261c-4.552797-10.496727-11.761393-24.028653-21.372854-40.216376-14.670125-24.408052-34.90478-54.633568-60.324565-90.044214-133.169322 38.572311-215.119674 82.329752-263.176979 140.124985-28.454983 34.14598-45.65444 73.47709-57.289366 121.534395a101.843547 101.843547 0 0 1 45.27504 67.786094h157.450907v-160.739039h50.586637v0.252933h152.771644V287.69569z m181.606027 2.149932a50.966037 50.966037 0 1 0 50.83957 50.966037 50.95339 50.95339 0 0 0-50.83957-50.966037zM321.031537 493.950056m-102.197653 0a102.197653 102.197653 0 1 1 204.395307 0 102.197653 102.197653 0 1 1-204.395307 0Z"  horiz-adv-x="1065" />

    
    <glyph glyph-name="gongjuxiang" unicode="&#58991;" d="M847.496 654.539H729.861v77.992c0 41.355-33.645 75-75 75h-302.04c-41.355 0-75-33.645-75-75v-77.992H177.504c-57.897 0-105-47.103-105-105V79.57c0-57.897 47.103-105 105-105h669.991c57.897 0 105 47.103 105 105V549.539c0.001 57.897-47.102 105-104.999 105z m-519.675 77.992c0 13.785 11.215 25 25 25h302.041c13.785 0 25-11.215 25-25v-77.992H327.821v77.992zM902.496 79.57c0-30.327-24.673-55-55-55H177.504c-30.327 0-55 24.673-55 55V313.413h353.588v-11.999c0-20.71 16.789-37.498 37.498-37.498 20.71 0 37.498 16.788 37.498 37.498v11.999h351.407V79.57z m0 280.341H551.089v58.497c0 20.71-16.789 37.498-37.498 37.498-20.71 0-37.498-16.788-37.498-37.498v-58.497H122.504V549.539c0 30.327 24.673 55 55 55h669.991c30.327 0 55-24.673 55-55v-189.628z"  horiz-adv-x="1024" />

    
    <glyph glyph-name="canshushezhi1" unicode="&#58891;" d="M512 864C777.0752 864 992 649.0368 992 384S777.0368-96 512-96 32 118.96320000000003 32 384 246.9632 864 512 864zM301.4912 325.0176a33.6768 33.6768 0 1 1 0-67.3536 33.6768 33.6768 0 0 1 0 67.3536z m0 202.0992a33.6768 33.6768 0 1 1 0-67.3536 33.6768 33.6768 0 0 1 0 67.3536z m404.1984-202.0992h-269.4912a33.6768 33.6768 0 1 1 0-67.3536h269.4912a33.6768 33.6768 0 1 1 0 67.3536z m0 202.0992h-269.4912a33.6768 33.6768 0 1 1 0-67.3536h269.4912a33.6768 33.6768 0 1 1 0 67.3536z"  horiz-adv-x="1024" />

    
    <glyph glyph-name="huabanfuben" unicode="&#59109;" d="M947.63963734 576.0757333399999a29.53489067 29.53489067 0 0 1-0.36918614 3.98721024v1.84593066a29.53489067 29.53489067 0 0 1-1.47674453 4.94709418v0.59069782a29.53489067 29.53489067 0 0 1-2.51046571 4.7255825 29.53489067 29.53489067 0 0 1-3.76569857 4.50407083l-295.34890666 295.34890667a29.53489067 29.53489067 0 0 1-4.50407082 3.69186133l-1.18139564 0.66453505a29.53489067 29.53489067 0 0 1-3.91337301 2.06744234l-1.77209343 0.51686059a28.87035562 28.87035562 0 0 1-3.76569856 1.1075584A29.53489067 29.53489067 0 0 1 622.75584001 900.95953067H105.89525333a29.53489067 29.53489067 0 0 1-29.53489067-29.53489068v-959.88394665a29.53489067 29.53489067 0 0 1 29.53489067-29.53489068h812.20949334a29.53489067 29.53489067 0 0 1 29.53489067 29.53489068V576.0757333399999zM652.29073068 800.09787904L846.7779857 605.61062399H652.29073068zM135.430144-58.92441599999995V841.88974934h457.79080533v-265.814016a29.53489067 29.53489067 0 0 1 29.53489068-29.53489068h265.81401599v-605.46525866zM557.63140608 316.83323051L696.59306667 500.6879249H605.0349056L526.76744533 387.05243306a131.57793792 131.57793792 0 0 1-13.5860497-21.48663296l-1.624419 2.95348906a162.44189866 162.44189866 0 0 1-9.1558161 16.46570155L422.43544406 500.6879249H331.17263189L467.69766399 316.90706774 314.92844202 125.66865066000003h91.6319983l95.98839467 122.71747073A162.8110848 162.8110848 0 0 1 512 266.91926528q6.35000149-11.14942123 11.37093291-18.60698113L613.82153558 125.66865066000003h93.25641728z"  horiz-adv-x="1024" />

    
    <glyph glyph-name="basestation-active" unicode="&#58880;" d="M147.66 576.1a227.52 227.52 0 0 0 65 159.76 36 36 0 1 1-51.53 50.28 300.54 300.54 0 0 1 3.26-423.37 36 36 0 1 1 50.76 51.07 227.21 227.21 0 0 0-67.49 162.26zM684.59 712.42a36 36 0 0 1-1-50.9 123.36 123.36 0 0 0-2.22-173.09A36 36 0 1 1 732 437.26a195.36 195.36 0 0 1 3.5 274.12 36 36 0 0 1-50.91 1.04zM864.42 786.14a36 36 0 1 1-51.53-50.28 228.77 228.77 0 0 0-2.48-322 36 36 0 1 1 50.76-51.07 300.77 300.77 0 0 1 3.26 423.37zM344.5 437.52a36 36 0 0 1-0.26 50.91A123.36 123.36 0 0 0 342 661.52a36 36 0 1 1-51.94 49.87 195.36 195.36 0 0 1 3.5-274.12 36 36 0 0 1 50.91 0.26zM565.39 492.16a96 96 0 1 1-107.5 0.58L296.23 48.58000000000004a36.11 36.11 0 0 1 21.52-46.14A36.11 36.11 0 0 1 363.89 24l34.23 94H625l35-96.3a32.63 32.63 0 0 1 41.7-19.45l6.51 2.37a32.63 32.63 0 0 1 19.45 41.7z m-53.85-62.55L555.07 310H468zM421.41 182l23.29 64h133.66l23.29-64z"  horiz-adv-x="1024" />

    
    <glyph glyph-name="jizhanxinhao" unicode="&#58982;" d="M177.9 546.5c-0.1 54.6 21.2 107.1 59.4 146.1 8.4 8.4 11.6 20.6 8.4 32-3.2 11.4-12.2 20.2-23.7 23.1-11.5 2.9-23.6-0.6-31.8-9.2-105.5-108-104.1-280.8 3-387.1 12.9-12.8 33.7-12.8 46.5 0.1 12.8 12.9 12.8 33.7-0.1 46.6-39.6 39.2-61.8 92.6-61.7 148.4z m490.9 124.6c-13.1-12.6-13.5-33.4-0.9-46.5 42.7-44.5 41.8-114.9-2-158.3-8.6-8.2-12.2-20.5-9.2-32 2.9-11.5 11.9-20.6 23.4-23.7 11.5-3.1 23.8 0.3 32.1 8.9 69.3 68.6 70.8 180.2 3.2 250.6-6 6.3-14.3 9.9-23.1 10.1-8.7 0.2-17.2-3.1-23.5-9.1z m0 0M833.3 738.5c-8.2 8.6-20.3 12.1-31.8 9.2-11.5-2.9-20.5-11.7-23.7-23.1-3.2-11.4 0-23.6 8.4-32 80.1-82.1 79.1-213.5-2.3-294.4-12.9-12.8-13-33.7-0.1-46.5 12.8-12.9 33.7-13 46.6-0.1 106.9 106.2 108.2 278.9 2.9 386.9zM357.9 419.7c12.8 12.9 12.7 33.8-0.2 46.5-43.8 43.3-44.7 113.8-2 158.3 12.6 13.1 12.2 34-0.9 46.5-13.1 12.6-34 12.2-46.5-0.9-67.6-70.4-66.1-182 3.2-250.6 12.7-12.8 33.6-12.7 46.4 0.2z m202 50c32.1 21.4 46.4 61.3 35.3 98.2-11.1 36.9-45 62.3-83.6 62.5-38.6 0.2-72.8-24.8-84.3-61.6s2.4-76.8 34.3-98.6L313.8 64.1c-6.2-17.1 2.6-35.9 19.7-42.2 17.1-6.2 35.9 2.7 42.2 19.7l31.3 85.9h207.4l32-88c5.7-15.4 22.7-23.4 38.1-17.8l6 2.2c15.4 5.7 23.4 22.7 17.8 38.1L559.9 469.7z m-49.3-57.2l39.8-109.4h-79.6l39.8 109.4z m-82.4-226.4l21.3 58.5h122.2l21.3-58.5H428.2z m0 0"  horiz-adv-x="1024" />

    
    <glyph glyph-name="biaochi" unicode="&#59096;" d="M353.792 489.472l131.84-131.84 52.736 52.736-131.84 131.84-52.736-52.736zM1013.12 568.576L696.576 885.12a37.312 37.312 0 0 1-52.736 0L10.88 252.16a37.248 37.248 0 0 1 0-52.672l316.544-316.48a37.312 37.312 0 0 1 52.736 0l632.96 632.96a37.312 37.312 0 0 1 0 52.672z m-105.472-52.736l-527.36-527.36a37.312 37.312 0 0 0-52.8 0l-211.008 210.944a37.248 37.248 0 0 0 0 52.736l26.432 26.368 131.84-131.84 52.736 52.736-131.84 131.84L248.32 384l105.472-105.472 52.736 52.736-105.472 105.472 198.656 198.72-40.448-40.512 105.472-105.472 52.736 52.736L512 647.744l52.736 52.736 131.84-131.84 52.8 52.672-131.84 131.84 26.304 26.432a37.312 37.312 0 0 0 52.736 0l211.008-211.008a37.248 37.248 0 0 0 0-52.736z"  horiz-adv-x="1024" />

    
    <glyph glyph-name="csv2" unicode="&#58888;" d="M930.96651159-123.43492389999994H59.15453632V117.66972772999998h78.09926987v-163.00402769h715.6147896V110.97527245000003h78.09926987zM137.25245214 606.3500667999999h-78.09926989V908.59578488h618.99338109l252.81994825-252.14969034v-50.09602774h-78.09926985v17.73949401l-207.07585811 206.40695417H137.25245214zM922.04057125 606.79690544H645.90512439v286.17983789z m-617.54454063-429.99417704c-29.56582333-14.50465304-68.16861964-21.75697958-115.80974294-21.75697957-61.2520991 0-109.89657829 18.29871933-145.93479162 55.00448249-36.03685929 36.70847127-53.99977256 85.57636979-53.99977257 146.7160822 0 64.26352072 20.08201171 116.81445286 60.24738918 157.76112093 40.16673154 40.83428141 92.04605166 61.36448578 155.64202257 61.36448581 39.71853883 0 73.07842844-5.13187408 99.85624947-15.50936296v-83.78901524c-27.44672493 16.06588018-58.68616207 24.21052993-93.49760024 24.21052995-39.71853883 0-71.51584724-12.71865254-95.39327928-38.04492505-23.76369129-25.43865915-35.70105326-58.57648349-35.70105323-99.5217975 0-39.94195815 11.26845806-72.0750726 33.91640677-96.39663515 22.53827017-24.32291661 53.10880341-36.48369792 91.71159973-36.48369791 36.26163262 0 69.28571622 8.70252102 99.07495888 26.2185957v-79.7728837z m53.33222275 87.69411414c32.80066426-27.11091892 69.95462014-40.72324874 111.6825788-40.72324878 23.65265867 0 41.39215267 4.01748558 53.32951461 12.16213537 11.93871602 8.14464974 17.85188068 18.6318172 17.85188069 31.35046977 0 11.04639279-4.68503544 21.4211736-14.16884704 31.24079118s-34.36459949 23.0947874-74.865783 39.94195815c-63.59461682 26.99988632-95.39192523 66.16055387-95.39192524 117.70813019 0 37.82150571 14.39362042 67.16390971 43.17815317 88.13959869 28.78453273 20.97433494 66.94184446 31.35182385 114.35954844 31.35182382 39.71989289 0 73.07842844-5.13187408 100.07831474-15.50800892v-81.44649747c-27.33433826 18.51943055-59.24267929 27.89220952-95.83876385 27.89220948-21.4211736 0-38.49176368-3.90509891-51.21041624-11.71529667-12.83103923-7.81019779-19.18968849-18.29736529-19.18968851-31.35182382 0-10.48716746 4.35058349-20.19439841 13.16413715-29.00795207 8.70252102-8.81490771 30.34846798-20.75226967 64.93513273-35.81479402 40.49982943-17.29265538 68.28100631-35.59002061 83.4545633-54.89344985 15.17355695-19.30072112 22.7616895-42.17208919 22.76168948-68.83752353 0-39.050989-13.83574915-68.84023165-41.50589339-89.36772795-27.66879019-20.53020441-66.94184446-30.68291993-117.93019542-30.68291993-46.63641343 0-84.79372513 7.47439179-114.58296778 22.53691615v87.02521021z m677.01063925 304.47720315L893.47945786 162.07465603000003h-97.95921633L656.05648585 568.97404569h93.49760023l88.027212-287.62867833c4.35193755-14.17020112 7.14129392-27.55911161 8.14600382-40.16673153h1.56122714c1.45019448 12.94207189 4.35193755 26.66543433 8.92594031 41.28112002l88.02992014 286.62667652h90.59450313z"  horiz-adv-x="1024" />

    


  </font>
</defs>
</svg>
